<svg xmlns="http://www.w3.org/2000/svg" viewBox="0 0 322.75 327.11"><g id="Layer_2" data-name="Layer 2"><g id="Layer_1-2" data-name="Layer 1"><path d="M6,213.33C-32.3,99,122.05-35.13,231.53,8.41c31.08,12.36,54.7,39.13,69.91,68.91,27.3,53.46,29.38,120.47.35,173C234.18,372.68,48.41,340.27,6,213.33Z" style="fill:#003963;fill-rule:evenodd"/><path d="M237.65,70.28c-21.79-15.83-44.48-23.2-71.41-23.2A1.88,1.88,0,0,0,164.37,49v5.23a1.88,1.88,0,0,0,1.89,1.87,111.62,111.62,0,0,1,66.1,21.5,1.9,1.9,0,0,0,1.1.36,1.53,1.53,0,0,0,.3,0,1.81,1.81,0,0,0,1.22-.75l3.08-4.24a1.84,1.84,0,0,0,.34-1.4A1.88,1.88,0,0,0,237.65,70.28Z" style="fill:#fff"/><path d="M109.37,148.55v51h-9V158.28l-9.84,5.05-4.12-6.85,17-7.93Z" style="fill:#fff"/><path d="M142.12,201.09a23,23,0,0,1-12.47-3.47A23.62,23.62,0,0,1,121,188a30.25,30.25,0,0,1-3.1-13.81,29.25,29.25,0,0,1,3.1-13.59,23.2,23.2,0,0,1,8.64-9.41,23.48,23.48,0,0,1,12.47-3.37,23,23,0,0,1,21,12.73A28.8,28.8,0,0,1,166.24,174,30.76,30.76,0,0,1,163.13,188a23.64,23.64,0,0,1-8.59,9.67A22.78,22.78,0,0,1,142.12,201.09Zm0-45.9a14.72,14.72,0,0,0-8.24,2.38,15.86,15.86,0,0,0-5.67,6.66,22.35,22.35,0,0,0-2,9.68,24.52,24.52,0,0,0,2,10.17,16.86,16.86,0,0,0,5.67,7.06,14,14,0,0,0,8.24,2.57,14.31,14.31,0,0,0,8.23-2.48,16.32,16.32,0,0,0,5.67-6.88,23.68,23.68,0,0,0,2-10,23.17,23.17,0,0,0-2-9.86,16.38,16.38,0,0,0-5.67-6.84A14.3,14.3,0,0,0,142.12,155.19Z" style="fill:#fff"/><path d="M186.13,167.25a15,15,0,0,1-7.34-1.8,13.17,13.17,0,0,1-5.22-5.27,16.42,16.42,0,0,1-1.93-8.14,16,16,0,0,1,2-8,13.93,13.93,0,0,1,5.31-5.4,14.34,14.34,0,0,1,7.2-1.89,14.12,14.12,0,0,1,10.35,4.09q4.14,4.09,4.14,11.21a15.75,15.75,0,0,1-2,8,14,14,0,0,1-5.31,5.36A14.34,14.34,0,0,1,186.13,167.25Zm0-23.94a6.18,6.18,0,0,0-4.77,2.2q-2,2.2-2,6.44,0,4.41,1.89,6.61a6.11,6.11,0,0,0,4.86,2.21,6.19,6.19,0,0,0,4.77-2.21q2-2.2,2-6.52t-1.94-6.53A6.13,6.13,0,0,0,186.13,143.31Zm4.59,56.61L218,136l8.55.36-27.27,63.9Zm40.86,0a14.13,14.13,0,0,1-10.35-4.1q-4.14-4.09-4.14-11.11a15.79,15.79,0,0,1,2-8,14.08,14.08,0,0,1,5.26-5.35,14.29,14.29,0,0,1,7.25-1.89,13.9,13.9,0,0,1,10.26,4.05q4,4,4,11.16a15.75,15.75,0,0,1-2,8,14.14,14.14,0,0,1-5.27,5.36A13.91,13.91,0,0,1,231.58,199.92Zm0-23.94a6.33,6.33,0,0,0-4.82,2.2q-2,2.2-2,6.44,0,4.41,1.93,6.66a6.2,6.2,0,0,0,4.91,2.25,6,6,0,0,0,4.68-2.25q2-2.25,2-6.57a9.71,9.71,0,0,0-1.94-6.44A6,6,0,0,0,231.58,176Z" style="fill:#fff"/></g></g></svg>