<svg xmlns="http://www.w3.org/2000/svg" viewBox="0 0 322.75 327.11"><g id="Layer_2" data-name="Layer 2"><g id="Layer_1-2" data-name="Layer 1"><path d="M301.79,250.33c29-52.54,26.95-119.55-.35-173-15.21-29.78-38.83-56.55-69.91-68.91C122.05-35.13-32.3,99,6,213.33,48.41,340.27,234.18,372.68,301.79,250.33Z" style="fill:#003963;fill-rule:evenodd"/><path d="M281.77,131C265.2,80,219.85,47.08,166.24,47.08A1.88,1.88,0,0,0,164.37,49V54.2a1.89,1.89,0,0,0,1.9,1.87,112.2,112.2,0,0,1,107,77.72,1.89,1.89,0,0,0,1.79,1.3,1.69,1.69,0,0,0,.58-.1l5-1.61a1.86,1.86,0,0,0,1.09-.93A1.83,1.83,0,0,0,281.77,131Z" style="fill:#fff"/><path d="M89.22,147.16a28.75,28.75,0,0,1,9.5-1.38q9.27,0,14.62,4T118.68,161a20.63,20.63,0,0,1-3,10.74q-3,5.06-11.07,11.78l-12,10h27.33l1.71,7H80.37v-6l20-17.5a51.92,51.92,0,0,0,7.57-7.94,11.7,11.7,0,0,0,2.46-6.91c0-3.09-1-5.37-3.12-6.86s-4.95-2.22-8.61-2.22A20.28,20.28,0,0,0,91,154.44,66.22,66.22,0,0,0,83.78,158L81.6,150.7A42.34,42.34,0,0,1,89.22,147.16Z" style="fill:#fff"/><path d="M148.46,201.09A23,23,0,0,1,136,197.62a23.62,23.62,0,0,1-8.64-9.63,30.26,30.26,0,0,1-3.11-13.81,29.25,29.25,0,0,1,3.11-13.59,23.2,23.2,0,0,1,8.64-9.41,23.6,23.6,0,0,1,33.48,9.36,28.8,28.8,0,0,1,3.1,13.46,30.76,30.76,0,0,1-3.1,13.95,23.66,23.66,0,0,1-8.6,9.67A22.78,22.78,0,0,1,148.46,201.09Zm0-45.9a14.69,14.69,0,0,0-8.23,2.38,15.86,15.86,0,0,0-5.67,6.66,22.35,22.35,0,0,0-2,9.68,24.53,24.53,0,0,0,2,10.17,16.86,16.86,0,0,0,5.67,7.06,14,14,0,0,0,8.23,2.57,14.34,14.34,0,0,0,8.24-2.48,16.32,16.32,0,0,0,5.67-6.88,23.68,23.68,0,0,0,2-10,23.17,23.17,0,0,0-2-9.86,16.38,16.38,0,0,0-5.67-6.84A14.33,14.33,0,0,0,148.46,155.19Z" style="fill:#fff"/><path d="M192.47,167.25a15,15,0,0,1-7.33-1.8,13.17,13.17,0,0,1-5.22-5.27A16.42,16.42,0,0,1,178,152a16,16,0,0,1,2-8,13.93,13.93,0,0,1,5.31-5.4,14.34,14.34,0,0,1,7.2-1.89,14.12,14.12,0,0,1,10.35,4.09Q207,144.93,207,152a15.75,15.75,0,0,1-2,8,14,14,0,0,1-5.31,5.36A14.34,14.34,0,0,1,192.47,167.25Zm0-23.94a6.18,6.18,0,0,0-4.77,2.2q-2,2.2-2,6.44,0,4.41,1.89,6.61a6.11,6.11,0,0,0,4.86,2.21,6.19,6.19,0,0,0,4.77-2.21q2-2.2,2-6.52t-1.93-6.53A6.15,6.15,0,0,0,192.47,143.31Zm4.59,56.61L224.33,136l8.55.36-27.27,63.9Zm40.86,0a14.13,14.13,0,0,1-10.35-4.1q-4.14-4.09-4.14-11.11a15.79,15.79,0,0,1,2-8,14.11,14.11,0,0,1,5.27-5.35,14.25,14.25,0,0,1,7.24-1.89,13.9,13.9,0,0,1,10.26,4.05q4,4,4,11.16a15.75,15.75,0,0,1-2,8A14.11,14.11,0,0,1,245,198,14,14,0,0,1,237.92,199.92Zm0-23.94a6.31,6.31,0,0,0-4.81,2.2q-2,2.2-2,6.44,0,4.41,1.94,6.66a6.18,6.18,0,0,0,4.9,2.25,6,6,0,0,0,4.68-2.25q2-2.25,2-6.57a9.71,9.71,0,0,0-1.93-6.44A6,6,0,0,0,237.92,176Z" style="fill:#fff"/></g></g></svg>