<svg xmlns="http://www.w3.org/2000/svg" viewBox="0 0 322.75 327.11"><g id="Layer_2" data-name="Layer 2"><g id="Layer_1-2" data-name="Layer 1"><path d="M301.79,250.33c29-52.54,26.95-119.55-.35-173-15.21-29.78-38.83-56.55-69.91-68.91C122.05-35.13-32.3,99,6,213.33,48.41,340.27,234.18,372.68,301.79,250.33Z" style="fill:#003963;fill-rule:evenodd"/><path d="M281.78,130.5C265,79,218.88,45.86,164.52,46.58a.15.15,0,0,0-.15.15v8.69a.15.15,0,0,0,.16.15c88.39-1.34,154.19,99.82,86,192.09a11.26,11.26,0,0,1-1.66,1.72c-75.6,61-166.2,25.58-189.61-46.58a1.89,1.89,0,0,0-.93-1.09,1.92,1.92,0,0,0-1.43-.11l-5,1.62a1.83,1.83,0,0,0-1.09.93,1.87,1.87,0,0,0-.12,1.43,121.16,121.16,0,0,0,115.5,84h0a121.51,121.51,0,0,0,115.56-159Z" style="fill:#fff"/><path d="M118.79,150.19,99.91,202.82l-8-2.39,17.19-46.88H82.55l-1.07-7h34.65Z" style="fill:#fff"/><path d="M147.79,198.57a23,23,0,0,1-12.47-3.47,23.62,23.62,0,0,1-8.64-9.63,30.25,30.25,0,0,1-3.1-13.81,29.25,29.25,0,0,1,3.1-13.59,23.2,23.2,0,0,1,8.64-9.41,23.48,23.48,0,0,1,12.47-3.37,23,23,0,0,1,21,12.73,28.8,28.8,0,0,1,3.11,13.46,30.76,30.76,0,0,1-3.11,14,23.64,23.64,0,0,1-8.59,9.67A22.78,22.78,0,0,1,147.79,198.57Zm0-45.9a14.72,14.72,0,0,0-8.24,2.38,15.86,15.86,0,0,0-5.67,6.66,22.35,22.35,0,0,0-2,9.68,24.52,24.52,0,0,0,2,10.17,16.86,16.86,0,0,0,5.67,7.06,14,14,0,0,0,8.24,2.57,14.31,14.31,0,0,0,8.23-2.48,16.32,16.32,0,0,0,5.67-6.88,23.68,23.68,0,0,0,2-10,23.17,23.17,0,0,0-2-9.86,16.38,16.38,0,0,0-5.67-6.84A14.3,14.3,0,0,0,147.79,152.67Z" style="fill:#fff"/><path d="M191.8,164.73a15,15,0,0,1-7.34-1.8,13.17,13.17,0,0,1-5.22-5.27,16.42,16.42,0,0,1-1.93-8.14,16,16,0,0,1,2-8,13.93,13.93,0,0,1,5.31-5.4,14.34,14.34,0,0,1,7.2-1.89,14.12,14.12,0,0,1,10.35,4.09q4.14,4.09,4.14,11.21a15.75,15.75,0,0,1-2,8,14,14,0,0,1-5.31,5.36A14.34,14.34,0,0,1,191.8,164.73Zm0-23.94A6.18,6.18,0,0,0,187,143q-2,2.2-2,6.44,0,4.41,1.89,6.61a6.11,6.11,0,0,0,4.86,2.21,6.19,6.19,0,0,0,4.77-2.21q2-2.21,2-6.52T196.61,143A6.13,6.13,0,0,0,191.8,140.79Zm4.59,56.61,27.27-63.9,8.55.36-27.27,63.9Zm40.86,0a14.13,14.13,0,0,1-10.35-4.1q-4.14-4.1-4.14-11.11a15.79,15.79,0,0,1,2-8,14.08,14.08,0,0,1,5.26-5.35,14.29,14.29,0,0,1,7.25-1.89A13.9,13.9,0,0,1,247.51,171q4.05,4,4.05,11.16a15.75,15.75,0,0,1-2,8,14.14,14.14,0,0,1-5.27,5.36A13.91,13.91,0,0,1,237.25,197.4Zm0-23.94a6.33,6.33,0,0,0-4.82,2.2q-2,2.21-2,6.44,0,4.41,1.93,6.66a6.2,6.2,0,0,0,4.91,2.25,6,6,0,0,0,4.68-2.25q2-2.25,2-6.57a9.71,9.71,0,0,0-1.94-6.44A6,6,0,0,0,237.25,173.46Z" style="fill:#fff"/></g></g></svg>