<svg xmlns="http://www.w3.org/2000/svg" viewBox="0 0 237.17 242.99"><g id="Layer_2" data-name="Layer 2"><g id="Layer_1-2" data-name="Layer 1"><path d="M231.16,83.94C214.41,32.4,168.26-.7,113.9,0a.15.15,0,0,0-.15.15v8.7a.16.16,0,0,0,.16.15c88.39-1.35,154.19,99.82,86,192.08a11.8,11.8,0,0,1-1.66,1.73c-75.6,61-166.2,25.57-189.61-46.58A1.87,1.87,0,0,0,6.28,155l-5,1.61a1.86,1.86,0,0,0-1.09.93A1.9,1.9,0,0,0,.09,159a121.17,121.17,0,0,0,115.5,84h0a121.51,121.51,0,0,0,115.57-159Z" style="fill:#fff"/><path d="M68.17,103.62,49.29,156.25l-8-2.39L58.51,107H31.93l-1.07-7H65.51Z" style="fill:#fff"/><path d="M97.17,152a23,23,0,0,1-12.47-3.46,23.62,23.62,0,0,1-8.64-9.63A30.3,30.3,0,0,1,73,125.09a29.25,29.25,0,0,1,3.1-13.59,23.18,23.18,0,0,1,8.64-9.4,23.49,23.49,0,0,1,12.47-3.38,23,23,0,0,1,21,12.74,28.76,28.76,0,0,1,3.11,13.45,30.76,30.76,0,0,1-3.11,14,23.67,23.67,0,0,1-8.59,9.68A22.78,22.78,0,0,1,97.17,152Zm0-45.9a14.73,14.73,0,0,0-8.24,2.39,15.86,15.86,0,0,0-5.67,6.66,22.31,22.31,0,0,0-2,9.67,24.52,24.52,0,0,0,2,10.17,16.89,16.89,0,0,0,5.67,7.07,14,14,0,0,0,8.24,2.56,14.3,14.3,0,0,0,8.23-2.47,16.35,16.35,0,0,0,5.67-6.89,23.68,23.68,0,0,0,2-10,23.13,23.13,0,0,0-2-9.85,16.38,16.38,0,0,0-5.67-6.84A14.31,14.31,0,0,0,97.17,106.1Z" style="fill:#fff"/><path d="M141.18,118.16a15,15,0,0,1-7.34-1.8,13.15,13.15,0,0,1-5.22-5.26,16.46,16.46,0,0,1-1.93-8.15,16,16,0,0,1,2-8,13.86,13.86,0,0,1,5.31-5.4,14.32,14.32,0,0,1,7.2-1.89,14.13,14.13,0,0,1,10.35,4.1c2.75,2.73,4.14,6.46,4.14,11.2a15.79,15.79,0,0,1-2,8,14,14,0,0,1-5.31,5.35A14.34,14.34,0,0,1,141.18,118.16Zm0-23.94a6.19,6.19,0,0,0-4.77,2.21q-2,2.2-2,6.43,0,4.41,1.89,6.62a6.1,6.1,0,0,0,4.86,2.2,6.2,6.2,0,0,0,4.77-2.2q2-2.2,2-6.53T146,96.43A6.14,6.14,0,0,0,141.18,94.22Zm4.59,56.61L173,86.93l8.55.36-27.27,63.9Zm40.86,0a14.1,14.1,0,0,1-10.35-4.09q-4.14-4.1-4.14-11.12a15.75,15.75,0,0,1,2-8,14.11,14.11,0,0,1,5.26-5.36,14.26,14.26,0,0,1,7.25-1.89,13.9,13.9,0,0,1,10.26,4q4.05,4,4.05,11.16a15.79,15.79,0,0,1-2,8,14.11,14.11,0,0,1-5.27,5.35A13.91,13.91,0,0,1,186.63,150.83Zm0-23.94a6.34,6.34,0,0,0-4.82,2.21q-2,2.21-2,6.43,0,4.41,1.93,6.66a6.2,6.2,0,0,0,4.91,2.25,6,6,0,0,0,4.68-2.25c1.31-1.5,2-3.69,2-6.57a9.68,9.68,0,0,0-1.94-6.43A6,6,0,0,0,186.63,126.89Z" style="fill:#fff"/></g></g></svg>