<svg xmlns="http://www.w3.org/2000/svg" viewBox="0 0 159.48 154.01"><g id="Layer_2" data-name="Layer 2"><g id="Layer_1-2" data-name="Layer 1"><path d="M151.24,23.2C129.46,7.37,106.77,0,79.83,0A1.87,1.87,0,0,0,78,1.87V7.11A1.88,1.88,0,0,0,79.86,9,111.61,111.61,0,0,1,146,30.48a1.93,1.93,0,0,0,1.11.36l.29,0a1.81,1.81,0,0,0,1.22-.75l3.09-4.24a1.89,1.89,0,0,0,.33-1.4A1.81,1.81,0,0,0,151.24,23.2Z" style="fill:#fff"/><path d="M23,101.47v51H14V111.2l-9.85,5L0,109.4l17-7.93Z" style="fill:#fff"/><path d="M55.71,154a23,23,0,0,1-12.46-3.47,23.62,23.62,0,0,1-8.64-9.63A30.26,30.26,0,0,1,31.5,127.1a29.25,29.25,0,0,1,3.11-13.59,23.2,23.2,0,0,1,8.64-9.41,23.44,23.44,0,0,1,12.46-3.37,23,23,0,0,1,21,12.73,28.8,28.8,0,0,1,3.1,13.46,30.76,30.76,0,0,1-3.1,14,23.66,23.66,0,0,1-8.6,9.67A22.78,22.78,0,0,1,55.71,154Zm0-45.9a14.69,14.69,0,0,0-8.23,2.38,15.86,15.86,0,0,0-5.67,6.66,22.35,22.35,0,0,0-2,9.68,24.53,24.53,0,0,0,2,10.17,16.86,16.86,0,0,0,5.67,7.06,14,14,0,0,0,8.23,2.57A14.34,14.34,0,0,0,64,144.15a16.32,16.32,0,0,0,5.67-6.88,23.68,23.68,0,0,0,2-10,23.17,23.17,0,0,0-2-9.86A16.38,16.38,0,0,0,64,110.58,14.33,14.33,0,0,0,55.71,108.11Z" style="fill:#fff"/><path d="M99.72,120.17a15,15,0,0,1-7.33-1.8,13.11,13.11,0,0,1-5.22-5.27A16.31,16.31,0,0,1,85.23,105a16,16,0,0,1,2-8,13.93,13.93,0,0,1,5.31-5.4,14.34,14.34,0,0,1,7.2-1.89,14.12,14.12,0,0,1,10.35,4.09q4.14,4.09,4.14,11.21a15.75,15.75,0,0,1-2,8,14,14,0,0,1-5.31,5.36A14.34,14.34,0,0,1,99.72,120.17Zm0-23.94A6.18,6.18,0,0,0,95,98.43q-2,2.2-2,6.44,0,4.41,1.89,6.61a6.11,6.11,0,0,0,4.86,2.21,6.19,6.19,0,0,0,4.77-2.21q2-2.2,2-6.52t-1.93-6.53A6.17,6.17,0,0,0,99.72,96.23Zm4.59,56.61,27.27-63.9,8.55.36-27.27,63.9Zm40.86,0a14.13,14.13,0,0,1-10.35-4.1q-4.14-4.1-4.14-11.11a15.79,15.79,0,0,1,2-8,14.11,14.11,0,0,1,5.27-5.35,14.25,14.25,0,0,1,7.24-1.89,13.9,13.9,0,0,1,10.26,4q4,4,4,11.16a15.75,15.75,0,0,1-2,8,14.06,14.06,0,0,1-12.33,7.25Zm0-23.94a6.31,6.31,0,0,0-4.81,2.2q-2,2.21-2,6.44,0,4.41,1.94,6.66a6.18,6.18,0,0,0,4.9,2.25,6,6,0,0,0,4.68-2.25q2-2.25,2-6.57a9.71,9.71,0,0,0-1.93-6.44A6,6,0,0,0,145.17,128.9Z" style="fill:#fff"/></g></g></svg>