<svg xmlns="http://www.w3.org/2000/svg" viewBox="0 0 201.49 154.01"><g id="Layer_2" data-name="Layer 2"><g id="Layer_1-2" data-name="Layer 1"><path d="M201.4,83.94C184.82,32.94,139.47,0,85.86,0A1.87,1.87,0,0,0,84,1.87V7.12A1.88,1.88,0,0,0,85.89,9a112.21,112.21,0,0,1,107,77.72,1.87,1.87,0,0,0,1.78,1.3,1.69,1.69,0,0,0,.58-.1l5-1.61a1.87,1.87,0,0,0,1.2-2.36Z" style="fill:#fff"/><path d="M8.84,100.07a29.14,29.14,0,0,1,9.51-1.37q9.27,0,14.62,4c3.56,2.64,5.34,6.4,5.34,11.25a20.55,20.55,0,0,1-3,10.74q-3,5.05-11.06,11.78l-12,10H39.54l1.7,7H0v-6L20,130a52.42,52.42,0,0,0,7.57-7.94A11.7,11.7,0,0,0,30,115.16c0-3.09-1-5.37-3.13-6.86s-4.95-2.22-8.6-2.22a20.33,20.33,0,0,0-7.67,1.28,66.17,66.17,0,0,0-7.18,3.55l-2.18-7.29A43.33,43.33,0,0,1,8.84,100.07Z" style="fill:#fff"/><path d="M68.09,154a23,23,0,0,1-12.46-3.47A23.71,23.71,0,0,1,47,140.91a30.38,30.38,0,0,1-3.1-13.81A29.37,29.37,0,0,1,47,113.51a23.61,23.61,0,0,1,42.12-.05,28.68,28.68,0,0,1,3.11,13.46,30.63,30.63,0,0,1-3.11,14,23.57,23.57,0,0,1-8.59,9.67A22.78,22.78,0,0,1,68.09,154Zm0-45.9a14.74,14.74,0,0,0-8.24,2.38,15.91,15.91,0,0,0-5.66,6.66,22.35,22.35,0,0,0-2,9.68,24.53,24.53,0,0,0,2,10.17,16.92,16.92,0,0,0,5.66,7.06,14,14,0,0,0,8.24,2.57,14.29,14.29,0,0,0,8.23-2.48A16.27,16.27,0,0,0,82,137.27a23.68,23.68,0,0,0,2-10,23.17,23.17,0,0,0-2-9.86,16.33,16.33,0,0,0-5.68-6.84A14.28,14.28,0,0,0,68.09,108.11Z" style="fill:#fff"/><path d="M112.1,120.17a15,15,0,0,1-7.34-1.8,13.17,13.17,0,0,1-5.22-5.27A16.42,16.42,0,0,1,97.61,105a16,16,0,0,1,2-8,13.93,13.93,0,0,1,5.31-5.4,14.34,14.34,0,0,1,7.2-1.89,14.12,14.12,0,0,1,10.35,4.09q4.14,4.09,4.14,11.21a15.75,15.75,0,0,1-2,8,14,14,0,0,1-5.31,5.36A14.34,14.34,0,0,1,112.1,120.17Zm0-23.94a6.18,6.18,0,0,0-4.77,2.2q-2,2.2-2,6.44,0,4.41,1.89,6.61a6.11,6.11,0,0,0,4.86,2.21,6.19,6.19,0,0,0,4.77-2.21q2-2.2,2-6.52t-1.94-6.53A6.13,6.13,0,0,0,112.1,96.23Zm4.59,56.61L144,88.94l8.55.36-27.27,63.9Zm40.86,0a14.13,14.13,0,0,1-10.35-4.1q-4.14-4.1-4.14-11.11a15.79,15.79,0,0,1,2-8,14.08,14.08,0,0,1,5.26-5.35,14.29,14.29,0,0,1,7.25-1.89,13.9,13.9,0,0,1,10.26,4q4,4,4.05,11.16a15.75,15.75,0,0,1-2,8,14.14,14.14,0,0,1-5.27,5.36A13.91,13.91,0,0,1,157.55,152.84Zm0-23.94a6.33,6.33,0,0,0-4.82,2.2q-2,2.21-2,6.44,0,4.41,1.93,6.66a6.2,6.2,0,0,0,4.91,2.25,6,6,0,0,0,4.68-2.25q2-2.25,2-6.57a9.71,9.71,0,0,0-1.94-6.44A6,6,0,0,0,157.55,128.9Z" style="fill:#fff"/></g></g></svg>